<?xml version="1.0" encoding="UTF-8"?>
<svg width="301px" height="149px" viewBox="0 0 301 149" version="1.1" xmlns="http://www.w3.org/2000/svg" xmlns:xlink="http://www.w3.org/1999/xlink">
    <!-- Generator: Sketch 64 (93537) - https://sketch.com -->
    <title>logo</title>
    <desc>Created with Sketch.</desc>
    <defs>
        <radialGradient cx="28.293298%" cy="38.0974008%" fx="28.293298%" fy="38.0974008%" r="79.9626664%" gradientTransform="translate(0.282933,0.380974),scale(1.000000,0.673024),translate(-0.282933,-0.380974)" id="radialGradient-1">
            <stop stop-color="#FFD945" offset="0%"></stop>
            <stop stop-color="#FFD744" offset="41.69%"></stop>
            <stop stop-color="#FFCF3F" offset="62.78%"></stop>
            <stop stop-color="#FFC237" offset="79.26%"></stop>
            <stop stop-color="#FFAF2C" offset="93.26%"></stop>
            <stop stop-color="#FFA325" offset="100%"></stop>
        </radialGradient>
        <linearGradient x1="6.66777982%" y1="50%" x2="91.2506261%" y2="50%" id="linearGradient-2">
            <stop stop-color="#8A7889" offset="0%"></stop>
            <stop stop-color="#6E566E" offset="100%"></stop>
        </linearGradient>
        <linearGradient x1="54.847884%" y1="67.0833209%" x2="26.1376043%" y2="6.21103189%" id="linearGradient-3">
            <stop stop-color="#FFD945" stop-opacity="0" offset="0%"></stop>
            <stop stop-color="#FBED21" offset="100%"></stop>
        </linearGradient>
        <linearGradient x1="35.27731%" y1="42.1083434%" x2="83.6040328%" y2="70.8103169%" id="linearGradient-4">
            <stop stop-color="#F35227" stop-opacity="0" offset="0%"></stop>
            <stop stop-color="#F35227" offset="100%"></stop>
        </linearGradient>
        <linearGradient x1="50%" y1="0%" x2="50%" y2="100%" id="linearGradient-5">
            <stop stop-color="#EEEEEE" offset="0%"></stop>
            <stop stop-color="#D8D8D8" offset="100%"></stop>
        </linearGradient>
        <linearGradient x1="50%" y1="0%" x2="50%" y2="100%" id="linearGradient-6">
            <stop stop-color="#C8C8C8" offset="0%"></stop>
            <stop stop-color="#7D7B7B" offset="42.5497663%"></stop>
            <stop stop-color="#C1C1C1" offset="66.5175994%"></stop>
            <stop stop-color="#7A7878" offset="100%"></stop>
        </linearGradient>
        <linearGradient x1="50%" y1="0%" x2="50%" y2="100%" id="linearGradient-7">
            <stop stop-color="#EEEEEE" offset="0%"></stop>
            <stop stop-color="#D8D8D8" offset="100%"></stop>
        </linearGradient>
    </defs>
    <g id="Logo" stroke="none" stroke-width="1" fill="none" fill-rule="evenodd">
        <g id="Desktop" transform="translate(-360.000000, -45.000000)">
            <g id="logo" transform="translate(357.000000, 45.000000)">
                <g id="Group-2" transform="translate(150.800000, 0.000000)" fill-rule="nonzero">
                    <path d="M19.3762303,19.0518243 C19.3762303,24.4300318 15.0387797,28.7898097 9.68811515,28.7898097 C4.33745058,28.7898097 -2.0783375e-14,24.4300318 -2.0783375e-14,19.0518243 C-2.0783375e-14,13.6736169 4.33745058,5.26512167e-14 9.68811515,5.26512167e-14 C15.0387797,5.26512167e-14 19.3762303,13.6736169 19.3762303,19.0518243 Z" id="Path" fill="url(#radialGradient-1)"></path>
                    <path d="M11.6710766,21.9661561 L11.6710766,32.7101337 C10.7037087,33.0244165 9.74919036,33.2618428 8.82084712,33.4303852 L8.82084712,21.9661561 C8.82084712,21.1754262 9.45936071,20.5337853 10.2458825,20.5337853 C10.6383503,20.5337853 10.9951247,20.6941955 11.2540202,20.9528291 C11.5114879,21.2132167 11.6710766,21.5716682 11.6710766,21.9661561 L11.6710766,21.9661561 Z" id="Path" fill="url(#linearGradient-2)"></path>
                    <path d="M16.8827752,20.063238 C16.8827752,24.0572295 13.6616526,27.294933 9.68811515,27.294933 C5.71457766,27.294933 2.49345506,24.0572295 2.49345506,20.063238 C2.49345506,16.0692464 5.71457766,5.91476852 9.68811515,5.91476852 C13.6616526,5.91476852 16.8827752,16.0692464 16.8827752,20.063238 Z" id="Path" fill="url(#linearGradient-3)"></path>
                    <path d="M14.9139325,22.0422155 C14.9139325,24.9433126 12.5741966,27.2950925 9.68795651,27.2950925 C6.80171645,27.2950925 4.46198056,24.9433126 4.46198056,22.0422155 C4.46198056,19.1411183 6.80171645,11.7652773 9.68795651,11.7652773 C12.5741966,11.7652773 14.9139325,19.1411183 14.9139325,22.0422155 Z" id="Path" fill="url(#linearGradient-4)"></path>
                </g>
                <text id="מכתב" font-family="MechonatDfusRegular" font-size="107.25" font-weight="normal" fill="#FFFFFF">
                    <tspan x="68" y="85.2">מכתב</tspan>
                </text>
                <text id="שלא-נכתב" font-family="MechonatDfusRegular" font-size="68.25" font-weight="normal" fill="#FDDF38">
                    <tspan x="0.4" y="145.9">שלא נכתב</tspan>
                </text>
                <g id="Group-3" transform="translate(287.283325, 82.526656) rotate(15.000000) translate(-287.283325, -82.526656) translate(268.783325, 63.526656)">
                    <path d="M18.4690992,26.5167025 C19.0551065,26.5167025 19.5856365,26.7542288 19.9696647,27.138257 C20.3536929,27.5222852 20.5912192,28.0528152 20.5912192,28.6388225 L20.5912192,28.6388225 L20.5912192,35.4445825 C20.5912192,36.0305897 20.3536929,36.5611197 19.9696647,36.9451479 C19.5856365,37.3291761 19.0551065,37.5667025 18.4690992,37.5667025 L18.4690992,37.5667025 L13.7433392,37.5667025 C13.157332,37.5667025 12.626802,37.3291761 12.2427738,36.9451479 C11.8587456,36.5611197 11.6212192,36.0305897 11.6212192,35.4445825 L11.6212192,35.4445825 L11.6212192,28.6388225 C11.6212192,28.0528152 11.8587456,27.5222852 12.2427738,27.138257 C12.626802,26.7542288 13.157332,26.5167025 13.7433392,26.5167025 L13.7433392,26.5167025 Z M16.4528859,27.8167025 C16.2529288,27.8167025 16.0710921,27.8912639 15.9397757,28.919032 C16.0710921,29.0421411 16.2529288,29.1167025 16.4528859,29.1167025 C16.652843,29.1167025 16.8346797,29.0421411 16.9659961,28.014373 C16.8346797,27.8912639 16.652843,27.8167025 16.4528859,27.8167025 Z" id="Combined-Shape" stroke="url(#linearGradient-6)" stroke-width="0.65" fill="url(#linearGradient-5)"></path>
                    <g id="Group" transform="translate(18.332425, 16.738669) scale(-1, 1) rotate(-11.000000) translate(-18.332425, -16.738669) translate(2.832425, 3.238669)" stroke="#979797">
                        <path d="M22.6851812,26.5224726 C16.2753201,25.8267355 12.7646736,24.3983062 12.1532417,22.2371846 C11.5418098,20.0760631 9.76353401,17.9385442 6.81841423,15.8246281 C3.70107964,13.4661407 2.3967115,10.8034915 2.90530981,7.83668076 C3.42042366,4.83186275 7.30530392,1.20531311 10.8105795,0.533275995 C11.5857202,0.384664768 9.75249769,0.894028498 10.6334621,0.896420501 C12.8706867,0.902190599 14.333823,3.21316099 16.8301807,4.79822885 C18.1010093,5.6051443 19.9034062,5.43979659 21.2602546,6.07945353 C23.3828901,7.08012421 24.9756477,8.75782442 26.0376107,9.28899253 C31.9250985,12.2337709 30.3434713,18.4351469 29.7140906,20.043892 C28.8687591,22.2046241 27.8253598,23.6904179 26.5838928,24.5012736 L22.6851812,26.5224726 Z" id="Path-2" stroke-width="0.65"></path>
                        <path d="M22.6851812,26.5224726 C16.2753201,25.8267355 12.7646736,24.3983062 12.1532417,22.2371846 C11.5418098,20.0760631 9.76353401,17.9385442 6.81841423,15.8246281 C3.70107964,13.4661407 2.3967115,10.8034915 2.90530981,7.83668076 C3.42042366,4.83186275 7.30530392,1.20531311 10.8105795,0.533275995 C11.5857202,0.384664768 9.75249769,0.894028498 10.6334621,0.896420501 C12.8706867,0.902190599 14.333823,3.21316099 16.8301807,4.79822885 C18.1010093,5.6051443 19.9034062,5.43979659 21.2602546,6.07945353 C23.3828901,7.08012421 24.9756477,8.75782442 26.0376107,9.28899253 C31.9250985,12.2337709 30.3434713,18.4351469 29.7140906,20.043892 C28.8687591,22.2046241 27.8253598,23.6904179 26.5838928,24.5012736 L22.6851812,26.5224726 Z" id="Path-2" stroke-width="1.56" stroke-linecap="round" stroke-linejoin="round" stroke-dasharray="0,2.080000030994416"></path>
                    </g>
                    <path d="M16.1062192,26.8417025 L16.106671,27.5470323 C15.7025017,27.6807594 15.4128859,28.0420231 15.4128859,28.4667025 C15.4128859,28.8913818 15.7025017,29.2526455 16.106671,29.3863727 L16.1062192,37.2417025 L13.7433392,37.2417025 C12.7508173,37.2417025 11.9462192,36.4371044 11.9462192,35.4445825 L11.9462192,28.6388225 C11.9462192,27.6463005 12.7508173,26.8417025 13.7433392,26.8417025 L16.1062192,26.8417025 Z" id="Combined-Shape" fill="url(#linearGradient-7)"></path>
                </g>
                <path d="M205.748493,28.6086825 L206.017151,28.6755371 L206.855042,28.5708008 C207.042149,28.6242599 207.132048,28.7698109 207.124739,29.0074536 L207.115655,29.1149387 L207.090698,29.2515869 C207.003418,29.6356201 207.08197,29.8625488 207.326355,29.932373 C207.326355,30.0371094 207.396179,30.2116699 207.535828,30.4560547 C208.618103,31.0146484 212.371155,30.875 218.794983,30.0371094 C219.144104,30.4814453 219.421093,30.6949574 219.625949,30.6776456 L219.685242,30.6655273 L227.540466,30.6655273 L228.483093,30.3513184 C228.681541,30.3513184 229.490999,30.6959908 230.911467,31.3853357 L231.15387,31.503418 L233.562805,31.817627 L234.086487,32.4460449 C234.819641,32.9697266 235.256042,33.1617432 235.395691,33.0220947 C236.432581,33.7133545 237.285658,34.5460083 237.954923,35.5200562 L238.171204,35.8499756 L237.647522,37.0544434 C238.101379,37.5432129 238.834534,38.4334717 239.846985,39.7252197 C240.196106,40.1790771 240.423035,41.086792 240.527771,42.4483643 C240.632507,43.8099365 240.7547,44.7001953 240.894348,45.1191406 C241.487854,45.3286133 242.098816,45.7475586 242.727234,46.3759766 C242.797058,46.5854492 242.74469,46.8822021 242.570129,47.2662354 C242.395569,47.6502686 242.308289,47.9993896 242.308289,48.3135986 C242.65741,48.3834229 242.83197,48.6976318 242.83197,49.2562256 C242.83197,49.6751709 242.639954,50.5916138 242.25592,52.0055542 C241.871887,53.4194946 241.749695,54.3184814 241.889343,54.7025146 C242.028992,54.8421631 242.203552,55.0865479 242.413025,55.4356689 C242.133728,55.6451416 241.99408,56.5877686 241.99408,58.2635498 C241.99408,60.3233643 241.959167,61.4929199 241.889343,61.7722168 C242.017354,62.15625 242.086694,62.818974 242.097361,63.7603887 L242.098816,64.0240479 L241.470398,64.9666748 L241.470398,67.1661377 L240.999084,68.2658691 L240.999084,70.2034912 C240.859436,70.3431396 240.684875,70.6224365 240.475403,71.0413818 C240.475403,71.3206787 240.641235,71.739624 240.9729,72.2982178 C241.304565,72.8568115 241.470398,73.2757568 241.470398,73.5550537 C241.086365,73.8343506 240.649963,74.4104004 240.161194,75.2832031 C240.161194,75.7021484 240.09137,76.2956543 239.951721,77.0637207 C239.812073,77.5524902 238.93927,78.5474854 237.333313,80.0487061 C236.739807,80.5374756 236.303406,81.1658936 236.024109,81.93396 C235.535339,82.2132568 234.819641,82.6322021 233.877014,83.1907959 C233.458069,83.7144775 232.724915,84.3603516 231.677551,85.128418 C230.176331,85.6520996 227.907043,86.0186768 224.86969,86.2281494 C221.832336,86.4376221 219.702698,86.40271 218.480774,86.1234131 C218.131653,86.0535889 216.935913,86.1583252 214.893555,86.4376221 C212.851196,86.7169189 211.515808,86.8565674 210.88739,86.8565674 C210.468445,86.8565674 210.13678,86.8216553 209.892395,86.7518311 C208.391174,86.0535889 207.273987,86.0186768 206.540833,86.6470947 C206.33136,86.5074463 205.545837,86.40271 204.184265,86.3328857 C203.056335,86.3328857 202.285377,86.3626333 201.87139,86.4221285 L201.77533,86.4376221 L201.461121,86.1234131 C201.007263,86.4725342 200.605774,86.7867432 200.256653,87.06604 C199.628235,87.6246338 199.244202,87.8515625 199.104553,87.7468262 C198.72052,87.677002 198.580872,87.0834961 198.685608,85.9663086 C198.790344,84.8491211 198.668152,84.185791 198.319031,83.9763184 C198.249207,78.8093262 198.353943,75.4752197 198.63324,73.973999 C198.842712,72.9266357 199.348938,72.2109375 200.151917,71.8269043 C201.094543,71.4428711 203.486023,71.4428711 207.326355,71.8269043 C208.129333,69.9416504 209.176697,68.9990234 210.468445,68.9990234 C211.306335,68.9990234 212.650452,69.5663452 214.500793,70.7009888 C216.351135,71.8356323 217.677795,72.3156738 218.480774,72.1411133 C220.505676,71.8618164 222.932068,71.4952393 225.759949,71.0413818 C225.829773,71.1810303 226.004333,71.3730469 226.28363,71.6174316 C226.28363,71.5476074 226.353455,71.4603271 226.493103,71.3555908 C226.562927,71.425415 226.615295,71.4865112 226.650208,71.5388794 C226.68512,71.5912476 226.842224,71.6174316 227.121521,71.6174316 C227.191345,71.3730469 227.96814,71.1461182 229.451904,70.9366455 C230.842934,70.7402649 231.704656,70.5438843 232.037071,70.3475037 L232.096497,70.3082275 L233.248596,68.5800781 C233.877014,68.5102539 234.5578,68.1785889 235.290955,67.585083 C235.22113,67.3057861 235.256042,66.8344727 235.395691,66.1711426 C235.325867,65.5776367 235.360779,64.6350098 235.500427,63.3432617 C235.570251,63.0639648 235.360779,61.8071289 234.872009,59.5727539 C234.184677,56.725235 233.620083,54.4146943 233.178226,52.6411319 L233.091492,52.2935791 L232.56781,51.9793701 L232.56781,55.3309326 L233.562805,56.5354004 L235.290955,64.0240479 C235.081482,66.0489502 234.435608,67.4628906 233.353333,68.2658691 C231.32843,65.1586914 230.315979,62.5751953 230.315979,60.5153809 C230.315979,59.8753255 230.388713,59.2231479 230.53418,58.5588481 L230.630188,58.1588135 L229.739929,57.7398682 L229.739929,54.2312012 L231.572815,51.2462158 L231.887024,50.670166 L231.887024,50.5654297 C231.607727,50.5654297 231.040405,51.0018311 230.185059,51.8746338 C229.329712,52.7474365 228.797302,53.1489258 228.58783,53.0791016 C228.453169,53.0791016 227.612439,51.9915938 226.065641,49.8165783 L225.71603,49.3242908 C224.16803,47.1492753 223.309867,46.0617676 223.141541,46.0617676 C221.675232,45.7126465 219.458313,45.5031738 216.490784,45.4333496 C215.844411,45.5626242 213.859215,45.7218165 210.535197,45.9109267 L210.160352,45.9320621 L209.709106,45.9570312 C205.88623,46.1665039 203.608215,46.2363281 202.875061,46.1665039 C202.805237,46.3061523 202.141907,46.0617676 200.885071,45.4333496 C200.745422,45.3635254 200.300293,45.4508057 199.549683,45.6951904 C198.799072,45.9395752 198.319031,46.0617676 198.109558,46.0617676 C197.690613,46.0617676 197.48114,45.8522949 197.48114,45.4333496 C197.678291,43.8890022 197.81359,41.7261426 197.887039,38.944771 L197.900085,38.4160156 L197.48114,38.4160156 C197.419074,38.1056858 197.329423,37.6160542 197.212188,36.9471209 L197.166931,36.6878662 L197.585876,35.5357666 C197.446228,35.2215576 197.30658,34.8462524 197.166931,34.4098511 C197.027283,33.9734497 196.957458,33.5806885 196.957458,33.2315674 C196.957458,32.149292 197.289124,31.1368408 197.952454,30.1942139 C198.615784,29.2515869 199.418762,28.640625 200.361389,28.3613281 C200.850159,28.2915039 201.548401,28.1693115 202.456116,27.994751 C202.456116,27.8604736 203.553575,28.0651175 205.748493,28.6086825 Z M196.957458,73.2408447 L197.271667,73.973999 L197.166931,80.7818604 L197.376404,82.5623779 L196.747986,83.557373 L196.747986,85.0236816 L197.271667,84.2905273 L198.004822,84.5 L197.900085,85.9139404 L198.004822,87.2231445 L197.166931,86.2281494 L194.181946,84.6047363 L195.386414,83.9763184 L195.386414,81.2531738 L194.600891,80.991333 L195.281677,79.3155518 L196.957458,78.6347656 L196.957458,73.2408447 Z M142.180359,29.3039551 C142.459656,29.3737793 143.646667,29.7229004 145.741394,30.3513184 C147.068054,30.8400879 148.41217,30.9797363 149.773743,30.7702637 C149.773743,30.8400879 149.843567,30.9448242 149.983215,31.0844727 C150.282462,31.0844727 150.684307,31.0588229 151.188752,31.0075235 L151.449524,30.9797363 L152.70636,30.9797363 C153.055481,31.0379232 153.404602,31.1688436 153.753723,31.3724976 L153.963196,31.503418 L156.791077,30.875 C157.077963,30.9387525 158.179773,30.9734007 160.096508,30.9789444 L160.666321,30.9797363 C161.471985,31.2375488 161.965299,31.3763709 162.146264,31.3962027 L162.184998,31.3986816 L163.54657,31.189209 C167.446382,30.5504467 170.294041,30.4944149 172.089549,31.0211136 L172.292053,31.0844727 L172.292053,31.503418 C172.361877,31.503418 173.374329,31.7827148 175.329407,32.3413086 C175.701803,32.2792426 176.2535,32.2999313 176.984499,32.4033746 L177.267029,32.4460449 L177.947815,33.5457764 C178.262024,33.6854248 178.76825,33.8948975 179.466492,34.1741943 C179.955261,34.383667 180.609863,35.1080933 181.430298,36.3474731 C182.250732,37.586853 182.800598,38.5731201 183.079895,39.3062744 C183.149719,40.2489014 183.533752,41.7675781 184.231995,43.8623047 C183.642853,45.6297302 183.544662,47.5659204 183.937424,49.6708751 L184.022522,50.0941162 L183.49884,53.3933105 L184.022522,55.12146 C183.891602,56.4961243 183.852735,57.3491526 183.905921,57.6805449 L183.917786,57.7398682 L183.971783,57.9756413 C184.164283,58.8143913 184.281827,59.3040254 184.324415,59.4445437 L184.3335,59.4724 L184.256542,59.5809364 C184.065617,59.8635063 183.847961,60.2797241 183.603577,60.8295898 C183.603577,60.9692383 183.32428,61.4667358 182.765686,62.3220825 C182.207092,63.1774292 181.962708,63.744751 182.032532,64.0240479 C181.910339,64.4517212 181.814877,65.0264072 181.746143,65.748106 L181.718323,66.0664062 L181.927795,66.3806152 L181.927795,66.5377197 L182.137268,66.956665 C182.269567,67.4197099 182.182528,68.5407657 181.876153,70.3198327 L181.823059,70.6224365 L182.242004,73.3455811 C182.381653,73.6947021 182.486389,74.2358398 182.556213,74.9689941 C182.416565,76.1560059 182.25946,77.3342896 182.0849,78.5038452 C181.910339,79.6734009 181.50885,80.7644043 180.880432,81.7768555 C180.768713,81.7768555 180.701682,81.7991992 180.679338,81.8438867 L180.670959,81.8815918 L180.985168,82.0386963 C180.915344,82.1783447 180.84552,82.3529053 180.775696,82.5623779 C179.972717,82.6322021 179.099915,82.1085205 178.157288,80.991333 C177.214661,79.8741455 176.882996,78.9489746 177.162292,78.2158203 C177.589452,77.0986328 177.459951,75.8113545 176.77379,74.3539853 L176.638611,74.0787354 L177.057556,73.1361084 C176.917908,72.9266357 176.743347,72.5949707 176.533875,72.1411133 C176.394226,71.8618164 176.498962,71.407959 176.848083,70.779541 C177.197205,70.151123 177.336853,69.6274414 177.267029,69.2084961 C177.080831,68.7119683 176.867048,68.0361388 176.62568,67.1810077 L176.533875,66.8519287 L176.533875,66.6424561 C176.533875,66.4678955 176.638611,66.5115356 176.848083,66.7733765 C177.057556,67.0352173 177.197205,67.0963135 177.267029,66.956665 C177.267029,66.4291043 177.294614,65.7084494 177.349783,64.7947003 L177.371765,64.4429932 L177.162292,64.2335205 C176.406548,62.8206069 176.083762,61.825189 176.193934,61.2472667 L176.219666,61.1437988 L175.643616,58.5777588 L175.643616,58.0540771 C175.643616,57.9144287 175.678528,57.4954834 175.748352,56.7972412 C175.818176,56.098999 175.853088,55.5404053 175.853088,55.12146 C175.718612,52.700887 175.61651,51.4781491 175.546781,51.4532461 L175.538879,51.4556885 L175.643616,51.3509521 C175.434143,50.9669189 175.119934,50.3035889 174.700989,49.3609619 C174.351868,48.6627197 173.548889,47.807373 172.292053,46.7949219 C171.838196,46.7250977 171.192322,46.515625 170.354431,46.1665039 C169.202332,45.5380859 168.277161,45.1540527 167.578918,45.0144043 C166.810852,45.1540527 165.920593,45.2587891 164.908142,45.3286133 C164.216882,45.2029297 163.299392,45.0206885 162.155671,44.7818896 L161.766052,44.7001953 L159.409485,45.0144043 L159.186386,44.9711204 C158.46616,44.8310267 158.041997,44.7442817 157.913896,44.7108854 L157.8863,44.7031 L157.105286,45.3286133 C156.302307,45.2587891 155.18512,45.2937012 153.753723,45.4333496 C153.334778,45.6079102 152.741272,45.887207 151.973206,46.2712402 C151.940233,46.2712402 151.440149,46.7694921 150.472955,47.7659957 L150.297424,47.9470215 L149.092957,48.6278076 C148.953308,48.7674561 148.674011,49.5442505 148.255066,50.9581909 C147.836121,52.3721313 147.626648,53.1140137 147.626648,53.1838379 C147.688714,53.6182997 147.80595,54.2320632 147.978355,55.0251284 L148.045593,55.3309326 L147.626648,56.5354004 C147.746347,56.6550991 147.866045,56.8645717 147.985744,57.1638184 L148.045593,57.3209229 L149.092957,59.2585449 L149.983215,61.8769531 L150.087952,63.6051025 L151.030579,65.0714111 L150.611633,66.2758789 C150.541809,66.4504395 151.170227,67.4628906 152.496887,69.3132324 C153.648987,70.9890137 154.364685,71.9665527 154.643982,72.2458496 C154.434509,72.9091797 154.539246,73.7819824 154.958191,74.8642578 C154.902332,75.0876953 154.846472,75.3558203 154.790613,75.6686328 L154.748718,75.9116211 L155.481873,77.6921387 C155.481873,77.8317871 155.132751,78.4078369 154.434509,79.4202881 C154.713806,79.9090576 154.853455,80.3978271 154.853455,80.8865967 C154.853455,81.93396 154.277405,82.9987793 153.125305,84.0810547 C152.444519,84.6047363 151.763733,85.1578751 151.082947,85.7404709 L150.402161,86.3328857 L149.878479,86.3328857 C149.354797,86.40271 146.937134,86.4899902 142.625488,86.5947266 C138.313843,86.6994629 135.913635,86.7518311 135.424866,86.7518311 C135.215393,86.9613037 134.778992,87.06604 134.115662,87.06604 C133.766541,86.8565674 133.207947,86.5423584 132.43988,86.1234131 C132.370056,85.5997314 132.038391,84.9538574 131.444885,84.185791 C131.060852,83.6970215 130.659363,83.1558838 130.240417,82.5623779 C130.5578,80.5311279 131.005022,78.2834806 131.582081,75.8194358 L131.759094,75.0737305 L132.020935,73.973999 L135.529602,72.8218994 C136.398526,73.0080973 137.419166,73.1391255 138.591523,73.2149839 L139.038269,73.2408447 L140.504578,71.6174316 C140.444728,71.3481097 140.436178,70.9890137 140.478928,70.5401437 L140.504578,70.3082275 L141.2901,69.5227051 L140.504578,61.3532715 L140.504578,59.3632812 L140.975891,58.5777588 L140.871155,55.6451416 L140.504578,54.1264648 L141.604309,52.2935791 L141.604309,50.355957 L140.399841,49.8846436 L135.00592,43.7575684 L137.100647,43.652832 L138.72406,45.6428223 L141.761414,46.5854492 L142.389832,49.0467529 L141.970886,53.1838379 L142.180359,53.6027832 C142.320007,53.3933105 142.459656,53.1140137 142.599304,52.7648926 C142.599304,52.7135932 142.679394,52.6104708 142.839574,52.4555256 L142.926338,52.3737345 L143.044434,52.267395 C143.341187,52.0055542 143.489563,51.8397217 143.489563,51.7698975 C143.629211,51.2811279 143.838684,50.5130615 144.117981,49.4656982 C144.117981,49.3353597 143.935507,48.7944548 143.570559,47.8429834 L143.489563,47.6328125 L143.489563,46.2712402 L140.975891,44.7001953 C140.242737,44.1416016 139.561951,43.5655518 138.933533,42.9720459 C137.641785,41.8199463 137.065735,40.6329346 137.205383,39.4110107 C137.135559,37.4559326 137.135559,35.3961182 137.205383,33.2315674 C137.345032,32.2191162 137.851257,31.0844727 138.72406,29.8276367 C139.701599,29.7578125 140.853699,29.583252 142.180359,29.3039551 Z M78.1340942,26.6331787 C78.6228638,26.7030029 79.2250977,27.0783081 79.9407959,27.7590942 C80.6564941,28.4398804 81.1365356,28.8151855 81.3809204,28.8850098 C81.7998657,29.1643066 82.3759155,29.4785156 83.1090698,29.8276367 C86.0067749,29.6181641 89.1488647,29.4785156 92.5353394,29.4086914 C93.0939331,29.4785156 93.8445435,29.3737793 94.7871704,29.0944824 C95.2061157,28.954834 96.1836548,29.4086914 97.7197876,30.4560547 C98.5925903,30.1069336 100.006531,29.7927246 101.961609,29.5134277 C104.12616,29.2341309 105.592468,29.2341309 106.360535,29.5134277 C106.430359,29.3737793 107.599915,29.7927246 109.869202,30.7702637 C110.303663,30.8943956 110.834672,31.1840368 111.462228,31.6391873 L111.702087,31.817627 L112.016296,32.7078857 C112.470154,32.8475342 113.06366,33.1617432 113.796814,33.6505127 C114.252999,34.3022054 114.678771,35.4252892 115.074132,37.019764 L115.158386,37.3686523 L115.158386,39.4110107 C115.341675,39.7164917 115.618517,40.1155262 115.988913,40.6081142 L116.153381,40.8249512 L116.258118,41.8199463 L115.839172,42.0294189 C116.048645,42.2388916 116.153381,42.5531006 116.153381,42.9720459 C115.769348,43.4957275 115.664612,44.2463379 115.839172,45.223877 C116.048645,46.3410645 116.083557,47.144043 115.943909,47.6328125 C115.64541,49.3574707 115.520207,50.3259326 115.568298,50.5381982 L115.577332,50.5654297 L116.153381,51.0367432 C116.29303,51.3858643 116.231934,51.8309937 115.970093,52.3721313 C115.737345,52.8531426 115.608041,53.2031258 115.58218,53.4220807 L115.577332,53.4980469 L116.153381,54.7025146 C116.432678,55.5753174 116.20575,56.5877686 115.472595,57.7398682 C115.123474,58.3682861 115.420227,59.6425781 116.362854,61.5627441 C116.29303,62.1213379 116.153381,62.8370361 115.943909,63.7098389 C115.80426,64.1986084 115.874084,65.4903564 116.153381,67.585083 C117.165833,67.899292 118.317932,68.3706055 119.60968,68.9990234 C119.60968,69.2783203 119.705688,69.7059937 119.897705,70.2820435 C120.089722,70.8580933 120.482483,71.2944946 121.075989,71.5912476 C121.669495,71.8880005 122.070984,72.2283936 122.280457,72.6124268 C122.489929,73.4503174 122.943787,74.4104004 123.642029,75.4926758 C123.507751,77.5739746 122.324432,80.1071683 120.092072,83.092257 L119.819153,83.4526367 L123.118347,79.7344971 L123.956238,80.8865967 L123.013611,83.871582 L123.013611,86.2281494 L121.442566,85.9139404 L119.190735,86.0186768 L115.577332,85.0236816 C114.948914,85.0935059 114.128479,85.2331543 113.116028,85.442627 C112.984594,85.5083439 112.296499,85.3885071 111.051744,85.0831168 L110.811829,85.0236816 L109.764465,85.3378906 L109.545026,85.3016497 C108.836093,85.182276 108.415798,85.0874674 108.284142,85.0172237 L108.255392,84.9986754 L108.2406,84.9823 L107.617371,85.3378906 L106.255798,85.2331543 L104.998962,83.557373 C104.868624,83.557373 104.297307,83.3901053 103.285011,83.0555697 L103.06134,82.9813232 L101.490295,83.4526367 L100.652405,85.2331543 C98.6973267,85.3728027 97.3532104,85.5648193 96.6200562,85.8092041 C96.2709351,85.9488525 94.8046265,85.8615723 92.2211304,85.5473633 C89.9518433,85.2680664 88.5728149,85.0935059 88.0840454,85.0236816 C86.6016235,85.217041 84.8217257,85.2319148 82.7443519,85.068303 L82.218811,85.0236816 L81.6951294,84.9189453 C80.7927856,85.2412109 80.1879179,85.384991 79.880526,85.3502855 L79.8098755,85.3378906 L77.5580444,84.6047363 C77.3485718,84.814209 76.8947144,84.9189453 76.1964722,84.9189453 C75.6844279,84.7269287 75.2457233,84.2708893 74.8803584,83.550827 L74.7825317,83.3479004 L74.2064819,82.0386963 C74.1366577,82.1085205 74.0668335,82.1434326 73.9970093,82.1434326 C73.7700806,82.1434326 73.5281005,81.7520964 73.271069,80.9694239 L73.2114868,80.7818604 L73.2114868,79.4202881 C73.4209595,79.1409912 73.6129761,78.8093262 73.7875366,78.425293 C73.9271851,78.2158203 73.8399048,77.9016113 73.5256958,77.482666 C74.2588501,76.5749512 74.9396362,75.6672363 75.5680542,74.7595215 C76.4152547,73.6190592 77.1712183,72.8891634 77.8359448,72.569834 L77.9769897,72.5076904 L79.4956665,72.4029541 C79.7749634,72.1585693 80.281189,71.8967285 81.0143433,71.6174316 C81.6078491,71.8269043 82.4806519,72.0014648 83.6327515,72.1411133 C84.5753784,71.9316406 86.6351929,71.7919922 89.8121948,71.722168 C93.1288452,71.6523437 95.1013794,71.7919922 95.7297974,72.1411133 C95.8345337,72.2109375 96.253479,72.1760254 96.9866333,72.036377 C97.7197876,71.8967285 98.2958374,71.8269043 98.7147827,71.8269043 C99.4130249,71.8269043 99.9890747,72.0189209 100.442932,72.4029541 C101.029456,71.9793538 101.859278,71.9054953 102.932398,72.1813786 L103.166077,72.2458496 L105.62738,71.8269043 C105.871765,71.6436157 106.142879,71.3133144 106.440723,70.8360004 L106.570007,70.6224365 L106.936584,70.2034912 L106.465271,63.9193115 L107.617371,59.7822266 L106.988953,55.2261963 L108.76947,55.5404053 L109.34552,57.2161865 L108.76947,58.2635498 L108.036316,61.7722168 L108.874207,63.0290527 L108.350525,64.9666748 L109.659729,66.6424561 C109.712097,66.5377197 109.764465,66.4035263 109.816833,66.2398758 L109.866278,66.0718204 L109.856595,66.1005102 C109.784184,66.2470549 109.629019,65.8281096 109.3911,64.8436743 L109.34552,64.6524658 L109.973938,61.8769531 C109.694641,61.6674805 109.554993,61.3881836 109.554993,61.0390625 C109.491516,60.6582031 109.485746,60.0320934 109.537681,59.1607333 L109.554993,58.8919678 L110.078674,58.1588135 C110.218323,57.8096924 109.781921,56.7623291 108.76947,55.0167236 C109.013855,54.807251 109.275696,54.4755859 109.554993,54.0217285 C109.186961,51.5793355 108.899087,50.1148756 108.691373,49.6283487 L108.664734,49.5704346 L107.826843,49.1514893 L107.198425,47.5280762 C106.959028,47.0492815 106.668331,46.4935377 106.326335,45.8608448 L106.151062,45.5380859 L105.62738,44.28125 C104.998962,44.1416016 104.038879,43.8448486 102.747131,43.3909912 C102.432922,43.5655518 102.048889,43.652832 101.595032,43.652832 C101.106262,43.5480957 100.4953,43.3909912 99.762146,43.1815186 C99.5526733,43.0418701 99.3432007,42.9720459 99.133728,42.9720459 C98.8544312,42.9720459 98.3656616,43.1204224 97.6674194,43.4171753 C96.9691772,43.7139282 96.4454956,43.8273926 96.0963745,43.7575684 C94.8744507,43.4433594 93.687439,42.9720459 92.5353394,42.3436279 C92.3956909,42.2738037 92.1862183,41.8024902 91.9069214,40.9296875 C91.6276245,40.0568848 91.47052,39.6204834 91.4356079,39.6204834 C90.5628052,39.8997803 89.6900024,40.1616211 88.8171997,40.4060059 C88.697501,40.4658552 88.5521527,40.6283034 88.3811546,40.8933504 L88.2935181,41.0344238 L89.8121948,40.5107422 L89.9169312,42.0294189 L92.3258667,45.3286133 L82.8995972,44.909668 L82.8995972,44.8049316 C82.515564,44.595459 81.9744263,44.3161621 81.2761841,43.967041 C80.8921509,44.0368652 80.1589966,43.967041 79.0767212,43.7575684 C78.8672485,43.6877441 78.3261108,43.1116943 77.4533081,42.0294189 C77.0809123,41.7811551 76.5981769,41.4087592 76.0051021,40.9122314 L75.7775269,40.7202148 L78.1340942,44.909668 L75.6727905,44.4907227 L74.4159546,38.7302246 L75.6727905,40.5107422 C75.6029663,40.1965332 75.4633179,39.7164917 75.2538452,39.0706177 C75.0443726,38.4247437 74.7301636,37.5955811 74.3112183,36.5831299 C74.241394,36.3736572 74.2064819,36.0245361 74.2064819,35.5357666 C74.2064819,33.1966553 74.6254272,31.2590332 75.4633179,29.7229004 C75.812439,29.6530762 76.0742798,29.1904907 76.2488403,28.335144 C76.4088542,27.5510763 76.6128718,27.0677011 76.8608932,26.8850187 L76.9296265,26.8426514 L78.1340942,26.6331787 Z M299.965637,66.0664062 C300.167887,66.6394464 300.549139,68.5794139 301.109393,71.8863088 L301.170105,72.2458496 L300.855896,73.0313721 L301.065369,73.973999 C301.069227,74.0145154 301.072873,74.0560448 301.076305,74.098587 L293.8,74.1 L293.798464,85.5794201 C292.558088,85.6266823 291.713393,85.7262043 291.26438,85.8779862 L291.167786,85.9139404 L290.539368,85.3378906 C290.260071,85.1982422 289.91095,85.1633301 289.492004,85.2331543 C288.060608,85.5473633 287.135437,85.6520996 286.716492,85.5473633 C286.406162,85.4852973 285.930323,85.3956465 285.288974,85.2784107 L285.04071,85.2331543 L284.255188,85.5473633 C283.820726,85.5473633 283.206963,85.5887406 282.413897,85.6714952 L282.108093,85.7044678 L280.903625,85.5473633 C280.833801,85.5473633 280.667969,85.6608276 280.406128,85.8877563 C280.177017,86.086319 279.994683,86.1712809 279.859126,86.142642 L279.803894,86.1234131 L278.966003,85.7044678 L276.871277,85.9139404 C276.59198,85.5997314 276.155579,85.1982422 275.562073,84.7094727 C275.143127,84.7094727 274.619446,84.5698242 273.991028,84.2905273 C273.606995,83.871582 273.484802,82.2132568 273.624451,79.3155518 C273.799011,76.5574951 273.956116,75.0737305 274.095764,74.8642578 C274.158606,74.2044189 274.447678,73.5021619 274.962981,72.7574866 L275.143127,72.5076904 L275.457336,71.3555908 C277.377502,71.4603271 278.442322,71.4952393 278.651794,71.4603271 C279.210388,71.4603271 279.960999,71.3905029 280.903625,71.2508545 C280.694153,71.3206787 281.008362,71.407959 281.846252,71.5126953 C282.47467,71.3381348 283.382385,71.2857666 284.569397,71.3555908 C285.557798,71.722711 286.123602,71.9413515 286.26681,72.0115123 L286.291029,72.0242741 L286.3016,72.0343 L287.449646,71.4603271 L289.701477,72.5076904 C290.818665,72.2633057 292.302429,71.8094482 294.152771,71.1461182 C294.292419,70.7271729 294.606628,70.151123 295.095398,69.4179687 C295.514343,69.2783203 296.125305,68.859375 296.928284,68.1611328 C297.207581,68.1611328 297.713806,67.8120117 298.44696,67.1137695 C299.180115,66.4155273 299.68634,66.0664062 299.965637,66.0664062 Z M253.253235,74.288208 L253.881653,74.8642578 L254.038757,78.739502 C254.637251,80.0262626 255.030546,80.9924017 255.218644,81.6379195 L255.258409,81.7811937 L255.295593,81.93396 L255.340688,82.1437963 C255.46676,82.8444629 255.350386,83.5572518 254.991567,84.282163 L254.876648,84.5 L252.101135,84.5 L251.891663,82.2481689 L252.205872,81.5673828 L252.520081,78.425293 L252.939026,77.482666 L253.148499,76.1210937 L253.253235,74.288208 Z M264.539969,26.2040077 L264.721863,26.3189697 L265.612122,27.680542 L266.50238,28.5708008 L266.607117,29.932373 L265.926331,29.5134277 L264.826599,28.4660645 L261.265564,28.9897461 C263.639587,29.269043 264.948792,29.6181641 265.193176,30.0371094 C265.254272,30.0676575 265.315369,30.2318535 265.376465,30.5296974 L265.402649,30.6655273 L268.858948,30.3513184 C269.138245,30.9797363 269.810303,31.6867065 270.875122,32.472229 C271.939941,33.2577515 272.577087,33.8599854 272.78656,34.2789307 C272.926208,34.5582275 272.734192,35.7015991 272.21051,37.7090454 C271.686829,39.7164917 271.512268,40.8598633 271.686829,41.1391602 C272.280334,41.1391602 272.577087,41.1740723 272.577087,41.2438965 C272.78656,41.2438965 273.135681,41.1391602 273.624451,40.9296875 C273.554626,40.4060059 274.305237,39.4633789 275.876282,38.1018066 C276.853821,37.2988281 277.813904,36.5133057 278.756531,35.7452393 C278.686707,35.5357666 278.686707,35.3786621 278.756531,35.2739258 C279.594421,33.0395508 280.345032,31.3463135 281.008362,30.1942139 C281.14801,30.1942139 281.427307,30.3513184 281.846252,30.6655273 C282.753967,30.246582 283.522034,29.6879883 284.150452,28.9897461 C284.2901,29.1293945 284.726501,29.1293945 285.459656,28.9897461 C286.150916,28.7383789 286.686642,28.6566846 287.066835,28.7446631 L287.187805,28.7802734 L288.287537,30.0371094 C288.915955,30.246582 289.876038,30.6306152 291.167786,31.189209 C291.23761,31.3986816 291.717651,31.8612671 292.60791,32.5769653 C293.498169,33.2926636 294.082947,33.6505127 294.362244,33.6505127 C294.641541,33.6505127 294.95575,33.9472656 295.304871,34.5407715 C295.584167,35.0155762 295.852292,35.4568652 296.109246,35.8646387 L296.299866,36.1641846 L296.823547,36.3736572 C297.801086,37.1766357 298.813538,38.5032959 299.860901,40.3536377 C300.070374,40.8074951 300.288574,41.3049927 300.515503,41.8461304 C300.742432,42.3872681 301.100281,42.7276611 301.58905,42.8673096 C301.526208,43.7156738 301.576482,44.7478503 301.739871,45.9638391 L301.798523,46.3759766 L302.793518,47.7375488 C302.723694,48.8198242 302.688782,50.1639404 302.688782,51.7698975 C302.793518,52.1190186 302.91571,52.6252441 303.055359,53.2885742 C303.121692,53.7529053 303.0935,54.9576785 302.970784,56.902894 L302.950623,57.2161865 L303.264832,58.7872314 C303.334656,59.1712646 303.037903,60.1924438 302.374573,61.850769 C301.711243,63.5090942 301.239929,64.4080811 300.960632,64.5477295 C300.681335,64.6873779 300.340942,64.0327759 299.939453,62.5839233 C299.537964,61.1350708 299.284851,60.3757324 299.180115,60.3059082 C299.075378,60.236084 298.953186,60.1313477 298.813538,59.9916992 C298.604065,60.0615234 298.464417,60.0615234 298.394592,59.9916992 C298.332526,59.7434353 298.201498,59.3434546 298.001508,58.7917571 L297.923279,58.5777588 L297.347229,58.1588135 C296.648987,57.0765381 296.334778,55.9942627 296.404602,54.9119873 C296.264954,54.6676025 296.230042,54.1002808 296.299866,53.210022 C296.363342,52.4006958 296.34026,51.8438332 296.230619,51.5394343 L296.195129,51.4556885 L295.61908,51.0367432 C295.680176,50.8229065 295.687813,50.4754219 295.641991,49.9942894 L295.61908,49.7799072 L294.46698,48.7325439 L294.362244,47.7375488 C294.167733,47.4782017 293.61199,47.0984435 292.695012,46.5982741 L292.47699,46.4807129 L293.471985,48.9420166 L294.571716,50.1988525 L294.257507,54.7025146 L294.048035,55.9593506 L293.576721,56.6401367 L292.738831,57.7398682 L294.362244,58.6824951 L294.362244,63.2385254 L294.885925,64.5477295 L294.362244,66.8519287 L292.843567,58.8919678 L292.267517,57.0067139 L292.47699,56.1164551 L292.529358,52.2935791 L291.848572,50.9320068 C291.464539,51.3509521 291.132874,51.5604248 290.853577,51.5604248 C290.402405,51.5604248 290.040476,51.248075 289.767789,50.6233755 L289.701477,50.4606934 L289.020691,48.5230713 L290.434631,46.8996582 C289.282532,47.3186035 288.357361,47.5280762 287.659119,47.5280762 C285.738953,47.5280762 284.674133,46.3061523 284.464661,43.8623047 C284.255188,43.8623047 283.801331,44.0368652 283.103088,44.3859863 C282.463033,44.706014 282.087001,44.8793623 281.974991,44.9060313 L281.950989,44.909668 L281.217834,44.4907227 C280.798889,44.3510742 280.118103,44.28125 279.175476,44.28125 C278.232849,44.3510742 277.656799,44.5256348 277.447327,44.8049316 C277.136997,44.8049316 276.78529,44.9980258 276.392205,45.384214 L276.242859,45.5380859 L276.242859,46.3759766 C276.109211,46.5363541 275.873239,46.5944074 275.534943,46.5501365 L275.383694,46.5248985 L275.195496,46.4807129 C274.671814,46.3410645 274.305237,46.3759766 274.095764,46.5854492 C273.805725,47.1010742 273.352074,47.8993014 272.734812,48.9801307 L272.577087,49.2562256 L269.64447,49.5704346 L268.858948,52.0841064 C268.160706,52.6077881 267.287903,53.550415 266.24054,54.9119873 C266.24054,55.5404053 266.183982,56.3667749 266.070867,57.3910962 L266.031067,57.7398682 L265.612122,58.0540771 L265.297913,60.4106445 C265.158264,60.4804687 264.931335,60.6550293 264.617126,60.9343262 C264.477478,61.4230957 264.268005,61.9816895 263.988708,62.6101074 C263.334106,64.3448029 263.078403,65.7573113 263.221597,66.8476329 L263.255554,67.0614014 L263.465027,68.2658691 C263.18573,68.6848145 262.819153,69.2783203 262.365295,70.0463867 C262.365295,70.151123 262.470032,70.5177002 262.679504,71.1461182 C262.679504,71.2109549 262.589196,71.6370252 262.408579,72.4243289 L262.365295,72.6124268 L262.574768,75.0737305 L261.841614,76.7495117 L262.155823,78.0063477 C262.225647,78.2158203 262.051086,79.1409912 261.632141,80.7818604 C260.654602,81.4451904 259.240662,82.1783447 257.39032,82.9813232 C257.180847,82.9813232 256.761902,82.911499 256.133484,82.7718506 C256.033735,82.5224784 255.862737,82.3087308 255.62049,82.1306078 L255.466591,82.0280089 L255.295593,81.93396 C255.244294,81.754412 255.249528,81.4947741 255.311297,81.1550462 L255.346893,80.9785082 L255.40033,80.7556763 C255.522522,80.2821808 255.564526,79.9089212 255.52634,79.6358976 L255.505066,79.5250244 L255.819275,78.2158203 C255.752037,78.0141059 255.765733,76.5821826 255.860365,73.9200505 L255.871643,73.6074219 L255.885205,73.2415377 C255.975521,70.8375354 256.052473,69.4492572 256.116059,69.0767033 L256.124277,69.0338696 L256.1286,69.0131 L256.120392,69.0055695 C256.094208,68.9662933 256.028748,68.7895508 255.924011,68.4753418 C255.714539,67.6723633 255.993835,66.939209 256.761902,66.2758789 C256.622253,65.996582 256.796814,65.6038208 257.285583,65.0975952 C257.774353,64.5913696 257.983826,64.1986084 257.914001,63.9193115 C257.495056,60.7423096 257.599792,58.4730225 258.22821,57.1114502 C258.383375,56.6459554 258.635087,56.0425362 258.983346,55.3011927 L259.118469,55.0167236 L261.632141,53.3933105 C261.981262,52.1713867 262.225647,50.8621826 262.365295,49.4656982 C262.085999,49.2562256 261.94635,48.741272 261.94635,47.9208374 C261.94635,47.1004028 261.806702,46.5854492 261.527405,46.3759766 C261.3703,45.8104004 261.043523,45.1034302 260.547073,44.2550659 L260.375305,43.967041 L258.490051,43.7575684 C258.170024,43.4375407 257.910607,43.1538798 257.711802,42.9065857 L257.599792,42.7625732 L257.495056,41.71521 L256.342957,40.9296875 L255.819275,41.2438965 C254.91156,40.1616211 254.457703,39.184082 254.457703,38.3112793 C254.518799,38.3112793 254.606625,38.1776314 254.72118,37.9103355 L254.771912,37.7875977 L253.567444,36.1641846 C253.567444,36.0327507 253.737535,35.3137304 254.077716,34.0071236 L254.143494,33.755249 L254.143494,31.3986816 L255.086121,31.0844727 L255.40033,30.1942139 L256.866638,29.932373 L257.285583,29.1992187 C257.602966,28.9453125 258.165599,28.7202592 258.973483,28.5240589 L259.223206,28.4660645 L259.118469,26.6331787 C259.677063,26.1444092 260.514954,25.8476562 261.632141,25.7429199 C262.824524,25.6140137 263.7938,25.7677096 264.539969,26.2040077 Z M301.016341,74.1 L301.016341,78.2047132 L301.016341,78.2047132 L299,78 L299,74.1 L301.016341,74.1 Z M75.1491089,71.3555908 L75.1491089,72.036377 L76.6154175,72.6124268 L74.1017456,76.1210937 L72.8972778,73.5550537 L73.9970093,72.2458496 L75.1491089,71.3555908 Z M141.656677,59.6774902 L140.871155,60.2011719 L141.499573,60.8295898 C141.569397,60.550293 141.621765,60.1662598 141.656677,59.6774902 Z M179.257019,30.560791 L183.813049,31.189209 L183.394104,33.0220947 L183.603577,35.7452393 L183.289368,38.4160156 L182.451477,37.578125 L181.194641,34.8549805 L179.990173,32.7078857 L178.262024,31.817627 C177.753305,31.7577776 177.180461,31.6209792 176.543493,31.4072315 L176.219666,31.2939453 L179.257019,30.560791 Z" id="Combined-Shape" fill="#FFFFFF" fill-rule="nonzero"></path>
            </g>
        </g>
    </g>
</svg>